# xmcd CD database file
# Copyright (C) 1995-1998 Ti Kan
#
# Track frame offsets:
#	150
#	15856
#	35592
#	54239
#	77219
#	89761
#	108722
#	127178
#	139085
#	155595
#	180965
#	201421
#	218555
#	236337
#	258829
#	268578
#	289716
#	309013
#	322655
#
# Disc length: 4469 seconds
#
# Revision: 1
# Processed by: cddbd v1.4b41PL1 Copyright (c) Steve Scherf et al.
# Submitted via: CDex 1.30
#
DISCID=fd117313
DTITLE=Jack Myrick - Old Countrys Greatest Hits Vol. 3
DYEAR=2000
DGENRE=Country
TTITLE0=The Bottle Let Me Down
TTITLE1="TB" Blues
TTITLE2=Long Gone Lonesome Blues
TTITLE3=Year Clayton Delaney Died
TTITLE4=Will The Circle Be Unbroken
TTITLE5=Music Makin' Mama From Memphis Tenn.
TTITLE6=Beggin To You
TTITLE7=Millers Cave
TTITLE8=Back Street Affair
TTITLE9=You're Gonna' Change
TTITLE10=Pretty Words
TTITLE11=Golden Rocket
TTITLE12=Now And Then
TTITLE13=Frankie And Johnnie
TTITLE14=Jack's Boogie
TTITLE15=Hey Joe
TTITLE16=Ruby
TTITLE17=Jimmy Brown
TTITLE18=Lonesome 77-203
EXTD=\n\nYEAR: 2000  ID3G:   2
EXTT0=
EXTT1=
EXTT2=
EXTT3=
EXTT4=
EXTT5=
EXTT6=
EXTT7=
EXTT8=
EXTT9=
EXTT10=
EXTT11=
EXTT12=
EXTT13=
EXTT14=
EXTT15=
EXTT16=
EXTT17=
EXTT18=
PLAYORDER=
